<?xml version="1.0" encoding="UTF-8"?>
<svg width="136px" height="63px" viewBox="0 0 136 63" version="1.1" xmlns="http://www.w3.org/2000/svg" xmlns:xlink="http://www.w3.org/1999/xlink">
    <title>Group Copy 3</title>
    <g id="branding" stroke="none" stroke-width="1" fill="none" fill-rule="evenodd">
        <g id="selection_web-brower_firefox-(serif)" transform="translate(-64.000000, -32.000000)" fill-rule="nonzero">
            <g id="Group-Copy-3" transform="translate(64.000000, 32.000000)">
                <g id="Group-Copy-2" transform="translate(54.000000, 0.000000)" fill="#1F4564">
                    <path d="M7.056,0 C10.416,0 12.264,2.28 12.264,5.016 C12.264,7.728 10.392,10.008 7.056,10.008 L7.056,10.008 L2.808,10.008 L2.808,16.008 L-1.13686838e-13,16.008 L-1.13686838e-13,0 Z M6.672,2.472 L2.808,2.472 L2.808,7.536 L6.672,7.536 C8.256,7.536 9.384,6.528 9.384,5.016 C9.384,3.48 8.256,2.472 6.672,2.472 L6.672,2.472 Z" id="Combined-Shape"></path>
                    <path d="M19.728,4.128 C23.208,4.128 25.416,6.768 25.416,10.416 L25.416,10.416 L25.416,11.04 L16.488,11.04 C16.68,12.768 17.976,14.232 20.16,14.232 C21.312,14.232 22.632,13.776 23.472,12.936 L23.472,12.936 L24.624,14.592 C23.448,15.696 21.744,16.296 19.92,16.296 C16.416,16.296 13.848,13.872 13.848,10.2 C13.848,6.84 16.296,4.128 19.728,4.128 Z M19.704,6.192 C17.568,6.192 16.56,7.848 16.464,9.24 L16.464,9.24 L22.992,9.24 C22.92,7.872 21.984,6.192 19.704,6.192 Z" id="Combined-Shape"></path>
                    <path d="M30.432,16.008 L30.432,8.112 C30.936,7.272 32.352,6.552 33.432,6.552 C33.744,6.552 33.984,6.576 34.2,6.624 L34.2,4.128 C32.712,4.128 31.32,4.992 30.432,6.096 L30.432,4.416 L27.912,4.416 L27.912,16.008 L30.432,16.008 Z" id="Path"></path>
                    <path d="M41.52,16.296 C43.8,16.296 45.144,15.312 45.96,14.232 L44.304,12.672 C43.656,13.584 42.768,14.064 41.64,14.064 C39.552,14.064 38.136,12.456 38.136,10.2 C38.136,7.944 39.552,6.36 41.64,6.36 C42.768,6.36 43.656,6.792 44.304,7.704 L45.96,6.192 C45.144,5.088 43.8,4.128 41.52,4.128 C38.016,4.128 35.544,6.696 35.544,10.2 C35.544,13.704 38.016,16.296 41.52,16.296 Z" id="Path"></path>
                    <path d="M53.376,4.128 C56.856,4.128 59.064,6.768 59.064,10.416 L59.064,10.416 L59.064,11.04 L50.136,11.04 C50.328,12.768 51.624,14.232 53.808,14.232 C54.96,14.232 56.28,13.776 57.12,12.936 L57.12,12.936 L58.272,14.592 C57.096,15.696 55.392,16.296 53.568,16.296 C50.064,16.296 47.496,13.872 47.496,10.2 C47.496,6.84 49.944,4.128 53.376,4.128 Z M53.352,6.192 C51.216,6.192 50.208,7.848 50.112,9.24 L50.112,9.24 L56.64,9.24 C56.568,7.872 55.632,6.192 53.352,6.192 Z" id="Combined-Shape"></path>
                    <path d="M64.08,16.008 L64.08,7.896 C64.68,7.128 65.784,6.36 67.056,6.36 C68.472,6.36 69.408,6.936 69.408,8.76 L69.408,16.008 L71.928,16.008 L71.928,7.848 C71.928,5.472 70.68,4.128 68.184,4.128 C66.36,4.128 64.848,5.064 64.08,5.976 L64.08,4.416 L61.56,4.416 L61.56,16.008 L64.08,16.008 Z" id="Path"></path>
                    <path d="M78.696,16.296 C79.848,16.296 80.592,15.96 81.048,15.552 L80.448,13.632 C80.256,13.848 79.824,14.064 79.344,14.064 C78.624,14.064 78.24,13.464 78.24,12.672 L78.24,6.6 L80.592,6.6 L80.592,4.416 L78.24,4.416 L78.24,1.248 L75.72,1.248 L75.72,4.416 L73.8,4.416 L73.8,6.6 L75.72,6.6 L75.72,13.296 C75.72,15.24 76.728,16.296 78.696,16.296 Z" id="Path"></path>
                </g>
                <g id="Group-2-Copy-2" transform="translate(54.000000, 23.000000)" fill="#1F4564">
                    <path d="M5.952,4.368 C9.648,4.368 11.904,7.104 11.904,10.44 C11.904,13.752 9.648,16.536 5.952,16.536 C2.256,16.536 0,13.752 0,10.44 C0,7.104 2.256,4.368 5.952,4.368 Z M5.952,6.6 C3.816,6.6 2.616,8.4 2.616,10.44 C2.616,12.504 3.816,14.304 5.952,14.304 C8.112,14.304 9.288,12.504 9.288,10.44 C9.288,8.4 8.112,6.6 5.952,6.6 Z" id="Combined-Shape"></path>
                    <path d="M17.616,16.248 L17.616,6.84 L19.968,6.84 L19.968,4.656 L17.616,4.656 L17.616,4.008 C17.616,2.712 18.216,2.064 19.224,2.064 C19.776,2.064 20.208,2.256 20.544,2.568 L21.528,1.008 C20.832,0.264 19.8,0 18.744,0 C16.56,0 15.096,1.488 15.096,4.008 L15.096,4.656 L13.176,4.656 L13.176,6.84 L15.096,6.84 L15.096,16.248 L17.616,16.248 Z" id="Path"></path>
                    <path d="M31.584,16.536 C32.736,16.536 33.48,16.2 33.936,15.792 L33.336,13.872 C33.144,14.088 32.712,14.304 32.232,14.304 C31.512,14.304 31.128,13.704 31.128,12.912 L31.128,6.84 L33.48,6.84 L33.48,4.656 L31.128,4.656 L31.128,1.488 L28.608,1.488 L28.608,4.656 L26.688,4.656 L26.688,6.84 L28.608,6.84 L28.608,13.536 C28.608,15.48 29.616,16.536 31.584,16.536 Z" id="Path"></path>
                    <path d="M38.28,16.248 L38.28,8.136 C38.856,7.368 39.96,6.6 41.256,6.6 C42.672,6.6 43.584,7.128 43.584,8.952 L43.584,16.248 L46.104,16.248 L46.104,8.04 C46.104,5.664 44.856,4.368 42.36,4.368 C40.536,4.368 39.048,5.304 38.28,6.216 L38.28,0.24 L35.76,0.24 L35.76,16.248 L38.28,16.248 Z" id="Path"></path>
                    <path d="M54.552,4.368 C58.032,4.368 60.24,7.008 60.24,10.656 L60.24,10.656 L60.24,11.28 L51.312,11.28 C51.504,13.008 52.8,14.472 54.984,14.472 C56.136,14.472 57.456,14.016 58.296,13.176 L58.296,13.176 L59.448,14.832 C58.272,15.936 56.568,16.536 54.744,16.536 C51.24,16.536 48.672,14.112 48.672,10.44 C48.672,7.08 51.12,4.368 54.552,4.368 Z M54.528,6.432 C52.392,6.432 51.384,8.088 51.288,9.48 L51.288,9.48 L57.816,9.48 C57.744,8.112 56.808,6.432 54.528,6.432 Z" id="Combined-Shape"></path>
                </g>
                <g id="Group-3-Copy-2" transform="translate(54.000000, 46.000000)" fill="#1F4564">
                    <polygon id="Path" points="2.808 16.008 2.808 0 -7.10542736e-15 0 -7.10542736e-15 16.008"></polygon>
                    <path d="M8.664,16.008 L8.664,7.896 C9.264,7.128 10.368,6.36 11.64,6.36 C13.056,6.36 13.992,6.936 13.992,8.76 L13.992,16.008 L16.512,16.008 L16.512,7.848 C16.512,5.472 15.264,4.128 12.768,4.128 C10.944,4.128 9.432,5.064 8.664,5.976 L8.664,4.416 L6.144,4.416 L6.144,16.008 L8.664,16.008 Z" id="Path"></path>
                    <path d="M23.28,16.296 C24.432,16.296 25.176,15.96 25.632,15.552 L25.032,13.632 C24.84,13.848 24.408,14.064 23.928,14.064 C23.208,14.064 22.824,13.464 22.824,12.672 L22.824,6.6 L25.176,6.6 L25.176,4.416 L22.824,4.416 L22.824,1.248 L20.304,1.248 L20.304,4.416 L18.384,4.416 L18.384,6.6 L20.304,6.6 L20.304,13.296 C20.304,15.24 21.312,16.296 23.28,16.296 Z" id="Path"></path>
                    <path d="M32.616,4.128 C36.096,4.128 38.304,6.768 38.304,10.416 L38.304,10.416 L38.304,11.04 L29.376,11.04 C29.568,12.768 30.864,14.232 33.048,14.232 C34.2,14.232 35.52,13.776 36.36,12.936 L36.36,12.936 L37.512,14.592 C36.336,15.696 34.632,16.296 32.808,16.296 C29.304,16.296 26.736,13.872 26.736,10.2 C26.736,6.84 29.184,4.128 32.616,4.128 Z M32.592,6.192 C30.456,6.192 29.448,7.848 29.352,9.24 L29.352,9.24 L35.88,9.24 C35.808,7.872 34.872,6.192 32.592,6.192 Z" id="Combined-Shape"></path>
                    <path d="M43.32,16.008 L43.32,8.112 C43.824,7.272 45.24,6.552 46.32,6.552 C46.632,6.552 46.872,6.576 47.088,6.624 L47.088,4.128 C45.6,4.128 44.208,4.992 43.32,6.096 L43.32,4.416 L40.8,4.416 L40.8,16.008 L43.32,16.008 Z" id="Path"></path>
                    <path d="M51.648,16.008 L51.648,7.896 C52.248,7.128 53.352,6.36 54.624,6.36 C56.04,6.36 56.976,6.936 56.976,8.76 L56.976,16.008 L59.496,16.008 L59.496,7.848 C59.496,5.472 58.248,4.128 55.752,4.128 C53.928,4.128 52.416,5.064 51.648,5.976 L51.648,4.416 L49.128,4.416 L49.128,16.008 L51.648,16.008 Z" id="Path"></path>
                    <path d="M67.944,4.128 C71.424,4.128 73.632,6.768 73.632,10.416 L73.632,10.416 L73.632,11.04 L64.704,11.04 C64.896,12.768 66.192,14.232 68.376,14.232 C69.528,14.232 70.848,13.776 71.688,12.936 L71.688,12.936 L72.84,14.592 C71.664,15.696 69.96,16.296 68.136,16.296 C64.632,16.296 62.064,13.872 62.064,10.2 C62.064,6.84 64.512,4.128 67.944,4.128 Z M67.92,6.192 C65.784,6.192 64.776,7.848 64.68,9.24 L64.68,9.24 L71.208,9.24 C71.136,7.872 70.2,6.192 67.92,6.192 Z" id="Combined-Shape"></path>
                    <path d="M79.632,16.296 C80.784,16.296 81.528,15.96 81.984,15.552 L81.384,13.632 C81.192,13.848 80.76,14.064 80.28,14.064 C79.56,14.064 79.176,13.464 79.176,12.672 L79.176,6.6 L81.528,6.6 L81.528,4.416 L79.176,4.416 L79.176,1.248 L76.656,1.248 L76.656,4.416 L74.736,4.416 L74.736,6.6 L76.656,6.6 L76.656,13.296 C76.656,15.24 77.664,16.296 79.632,16.296 Z" id="Path"></path>
                </g>
                <g id="Group-4" fill="#FF8C3C">
                    <polygon id="Path-Copy-7" points="8.79757085 38 33 0 29.145749 0 5 38"></polygon>
                    <path d="M30,22 C34.7710843,22 38,25.4803625 38,30.0241692 C38,34.5196375 34.7710843,38 30,38 C25.2289157,38 22,34.5196375 22,30.0241692 C22,25.4803625 25.2289157,22 30,22 Z M30,25.1903323 C27.4939759,25.1903323 25.7108434,27.1722054 25.7108434,30.0241692 C25.7108434,32.8277946 27.4939759,34.7613293 30,34.7613293 C32.5060241,34.7613293 34.2891566,32.8277946 34.2891566,30.0241692 C34.2891566,27.1722054 32.5060241,25.1903323 30,25.1903323 Z" id="Combined-Shape-Copy-4"></path>
                    <path d="M8,0 C12.7710843,0 16,3.48036254 16,8.02416918 C16,12.5196375 12.7710843,16 8,16 C3.22891566,16 0,12.5196375 0,8.02416918 C0,3.48036254 3.22891566,0 8,0 Z M8,3.19033233 C5.4939759,3.19033233 3.71084337,5.17220544 3.71084337,8.02416918 C3.71084337,10.8277946 5.4939759,12.7613293 8,12.7613293 C10.5060241,12.7613293 12.2891566,10.8277946 12.2891566,8.02416918 C12.2891566,5.17220544 10.5060241,3.19033233 8,3.19033233 Z" id="Combined-Shape-Copy-5"></path>
                </g>
                <path d="M6,47 C6,53.5636046 12.2130234,59 20,59 C27.6757341,59 33.8221638,53.7178207 33.9962096,47.2805946 L34,47 L38,47 C38,55.9003684 29.8861354,63 20,63 C10.2274984,63 2.18675977,56.0626404 2.00320633,47.3061875 L2,47 L6,47 Z" id="Path-Copy-9" fill="#FF8C3C"></path>
            </g>
        </g>
    </g>
</svg>